<?xml version="1.0" encoding="UTF-8"?>
<!-- Created with Inkscape (http://www.inkscape.org/) -->
<svg width="100mm" height="100mm" version="1.1" viewBox="0 0 100 100" xmlns="http://www.w3.org/2000/svg">
 <g transform="translate(-64.521 -156.39)">
  <path transform="matrix(.96334 0 0 .96334 57.071 127.43)" d="m100.47 122.8c-6.1634 6.1634-25.628-13.481-34.237-12.118-8.6091 1.3636-21.051 26.062-28.817 22.105-7.7664-3.9572 4.9019-28.54 0.94477-36.306-3.9572-7.7664-31.291-11.967-29.928-20.576 1.3635-8.6091 28.658-4.1572 34.821-10.321 6.1634-6.1634 1.7116-33.458 10.321-34.821 8.6091-1.3635 12.809 25.97 20.576 29.928s32.349-8.7111 36.306-0.94477c3.9572 7.7664-20.741 20.208-22.105 28.817-1.3635 8.6091 18.281 28.074 12.118 34.237z" fill-opacity="0" stroke="#00f" stroke-linejoin="bevel" stroke-width="3.309"/>
 </g>
</svg>
